<svg xmlns="http://www.w3.org/2000/svg" xmlns:svg="http://www.w3.org/2000/svg" xmlns:xlink="http://www.w3.org/1999/xlink" id="svg2" width="500" height="400" version="1.1"><title id="title3119">MoneyManagerEX</title><defs id="defs4"><linearGradient id="linearGradient4109"><stop id="stop4111" offset="0" stop-color="#5cab30" stop-opacity="1"/><stop id="stop4113" offset="1" stop-color="#5cab30" stop-opacity="0"/></linearGradient><linearGradient id="linearGradient3966" x1="182.685" x2="182.685" y1="279.715" y2="84.875" gradientUnits="userSpaceOnUse" xlink:href="#linearGradient3924"/><linearGradient id="linearGradient3964" x1="180.746" x2="180.746" y1="353.004" y2="10.96" gradientUnits="userSpaceOnUse" xlink:href="#linearGradient3905"/><linearGradient id="linearGradient3962" x1="180.498" x2="180.498" y1="353.252" y2="11.779" gradientUnits="userSpaceOnUse" xlink:href="#linearGradient3881"/><linearGradient id="linearGradient3960" x1="180.918" x2="180.918" y1="352.832" y2="11.895" gradientUnits="userSpaceOnUse" xlink:href="#linearGradient3895"/><linearGradient id="linearGradient3930" x1="182.685" x2="182.685" y1="279.715" y2="84.875" gradientUnits="userSpaceOnUse" xlink:href="#linearGradient3924"/><linearGradient id="linearGradient3911" x1="180.746" x2="180.746" y1="353.004" y2="10.96" gradientUnits="userSpaceOnUse" xlink:href="#linearGradient3905"/><linearGradient id="linearGradient3901" x1="180.918" x2="180.918" y1="352.832" y2="11.895" gradientUnits="userSpaceOnUse" xlink:href="#linearGradient3895"/><linearGradient id="linearGradient3893" x1="180.498" x2="180.498" y1="353.252" y2="11.779" gradientUnits="userSpaceOnUse" xlink:href="#linearGradient3881"/><linearGradient id="linearGradient3881"><stop id="stop3883" offset="0" stop-color="#4aa035" stop-opacity="1"/><stop id="stop3885" offset="1" stop-color="#f8fad2" stop-opacity="1"/></linearGradient><linearGradient id="linearGradient3895"><stop id="stop3897" offset="0" stop-color="#256c32" stop-opacity="1"/><stop id="stop3899" offset="1" stop-color="#4eb133" stop-opacity="1"/></linearGradient><linearGradient id="linearGradient3905"><stop id="stop3907" offset="0" stop-color="#49a035" stop-opacity="1"/><stop id="stop3909" offset="1" stop-color="#8cc625" stop-opacity="1"/></linearGradient><linearGradient id="linearGradient3924"><stop id="stop3926" offset="0" stop-color="#284c27" stop-opacity="1"/><stop id="stop3928" offset="1" stop-color="#2e5b2c" stop-opacity="1"/></linearGradient><linearGradient id="linearGradient3157" x1="180.918" x2="180.918" y1="352.832" y2="11.895" gradientUnits="userSpaceOnUse" xlink:href="#linearGradient3895"/><linearGradient id="linearGradient3159" x1="180.498" x2="180.498" y1="353.252" y2="11.779" gradientUnits="userSpaceOnUse" xlink:href="#linearGradient3881"/><linearGradient id="linearGradient3161" x1="180.746" x2="180.746" y1="353.004" y2="10.96" gradientUnits="userSpaceOnUse" xlink:href="#linearGradient3905"/><linearGradient id="linearGradient3163" x1="182.685" x2="182.685" y1="279.715" y2="84.875" gradientUnits="userSpaceOnUse" xlink:href="#linearGradient3924"/><linearGradient id="linearGradient4115" x1="235.785" x2="186.238" y1="225.215" y2="225.215" gradientTransform="translate(-28.070176,652.3598)" gradientUnits="userSpaceOnUse" xlink:href="#linearGradient4109"/></defs><metadata id="metadata7"/><g id="layer1" transform="translate(0,-652.3598)"><rect id="rect3148" width="625.88" height="499.12" x="-61.886" y="603.152" fill="#e6e6e6" fill-opacity="1"/><g id="g3973" transform="translate(-0.85250322,427.41517)"><path id="path3879" fill="url(#linearGradient3157)" fill-opacity="1" stroke="none" d="M 351.5,182.25 C 351.5,276.55262 275.05262,353 180.75,353 86.447379,353 10,276.55262 10,182.25 10,87.947379 86.447379,11.5 180.75,11.5 c 94.30262,0 170.75,76.447379 170.75,170.75 z" transform="matrix(0.37481698,0,0,0.37481698,-3.7481692,227.6896)"/><path id="path3889" fill="url(#linearGradient3159)" fill-opacity="1" stroke="none" d="M 351.5,182.25 C 351.5,276.55262 275.05262,353 180.75,353 86.447379,353 10,276.55262 10,182.25 10,87.947379 86.447379,11.5 180.75,11.5 c 94.30262,0 170.75,76.447379 170.75,170.75 z" transform="matrix(0.35743416,0,0,0.35743416,-0.60622514,230.85762)"/><path id="path3903" fill="url(#linearGradient3161)" fill-opacity="1" stroke="none" d="M 351.5,182.25 C 351.5,276.55262 275.05262,353 180.75,353 86.447379,353 10,276.55262 10,182.25 10,87.947379 86.447379,11.5 180.75,11.5 c 94.30262,0 170.75,76.447379 170.75,170.75 z" transform="matrix(0.3378785,0,0,0.3378785,2.928462,234.42164)"/><g id="text3913" fill="#000" fill-opacity="1" stroke="none" display="inline" font-family="Bitstream Vera Sans" font-size="13.142" font-style="normal" font-weight="normal" letter-spacing="0" transform="matrix(0.35786444,0,0,0.38464775,-2.7826082,229.21739)" word-spacing="0" style="line-height:125%"><path font-stretch="normal" style="text-align:start;-inkscape-font-specification:FreeSans Bold" id="path3918" fill="url(#linearGradient3163)" fill-opacity="1" d="m 172,85 0,13.28125 c -15.31597,0.468778 -27.33609,3.57744 -36.21875,11.28125 -9.55493,8.28686 -13.40626,20.28945 -13.40625,35.5625 -1e-5,12.13301 4.19589,22.10799 10.4375,28.53125 6.24166,6.42331 15.67635,12.72996 30.40625,15.78125 L 172,191.25 l 0,44.09375 c -5.32532,-0.91406 -9.67517,-2.69521 -13.25,-5.53125 -5.57765,-4.42495 -8.28133,-13.2033 -8.8125,-21.625 l -31.8125,0 c 0.9296,16.70061 5.43356,32.46415 15.6875,41.28125 8.77607,7.54631 22.7747,11.9115 38.1875,13.0625 L 172,280 l 17,0 0,-17.4375 c 14.8881,-1.01688 27.8768,-4.27382 36.1875,-12.28125 10.52649,-10.14237 13.625,-23.18709 13.625,-39.03125 0,-12.27558 -4.17659,-21.00917 -10.25,-27.75 -6.14443,-6.81964 -12.17333,-12.07776 -27.84375,-16.34375 -5.02516,-1.36801 -8.62755,-2.30034 -11.71875,-3.0625 l 0,-38.90625 c 10.2914,2.53328 14.99086,9.02018 15.78125,21.125 l 31.90625,0 c -1.2e-4,-8.13607 -1.42565,-15.23366 -4,-21.40625 -2.60533,-6.24685 -7.74658,-13.09743 -11.5625,-16.5625 -3.88692,-3.52955 -8.21788,-5.79892 -13.75,-7.28125 -3.31238,-0.88755 -11.08929,-1.88905 -15.125,-2.5 -0.88232,-0.133571 -1.99502,-0.221897 -3.25,-0.28125 L 189,85 z m 0,39.15625 0,36.125 c -5.58102,-1.28494 -8.13676,-2.18063 -11,-4.25 -3.8854,-2.80812 -5.78125,-7.13405 -5.78125,-12.84375 0,-5.85222 0.30027,-10.4669 4.78125,-13.9375 3.60947,-2.7956 6.94036,-4.49855 12,-5.09375 z m 17,70.71875 c 6.10266,1.51703 8.91559,2.93882 12.21875,5.6875 4.11679,3.42573 5.81174,9.11888 5.59375,14.5625 -0.21799,5.44362 -2.0851,11.66369 -7.375,15.40625 -3.54833,2.51042 -6.2318,4.18827 -10.4375,5 z" font-family="FreeSans" font-size="206.521" font-variant="normal" font-weight="bold" text-anchor="start" transform="scale(1.0367459,0.9645565)" writing-mode="lr-tb"/></g></g><text id="text3144" x="151.753" y="743.205" fill="#5cab30" fill-opacity="1" stroke="none" font-family="Helvetica CY" font-size="40" font-stretch="normal" font-style="normal" font-variant="normal" font-weight="bold" letter-spacing="0" text-anchor="start" word-spacing="0" writing-mode="lr-tb" xml:space="preserve" style="text-align:start;line-height:125%;-inkscape-font-specification:Helvetica CY Bold"><tspan font-style="normal" style="text-align:start;line-height:125%;-inkscape-font-specification:Oswald" id="tspan3146" x="151.753" y="743.205" font-family="Oswald" font-size="48" font-stretch="normal" font-variant="normal" font-weight="normal" text-anchor="start" writing-mode="lr-tb">Money Manager EX</tspan></text><rect id="rect3167" width="432.982" height="100" x="33.949" y="827.36" fill="#b3b3b3" fill-opacity="1" ry="8.442"/><rect id="rect4099" width="105.568" height="20.167" x="161.654" y="867.616" fill="url(#linearGradient4115)" fill-opacity="1" opacity=".99"/><g id="g4123" transform="translate(-27.368421,0.70175439)"><path id="path4121" fill="#5cab30" fill-opacity="1" d="m 370.23513,224.96617 -37.86717,21.52427 -37.57415,22.0318 0.29303,-43.55607 -0.29303,-43.55607 37.57415,22.03181 z" opacity=".99" transform="matrix(1,0,0,0.69131768,0,722.05186)"/></g><text id="text3034" x="66.806" y="820.346" fill="#000" fill-opacity="1" stroke="none" font-family="Oswald" font-size="18" font-stretch="extra-condensed" font-style="normal" font-variant="normal" font-weight="bold" letter-spacing="0" text-anchor="start" word-spacing="0" writing-mode="lr-tb" xml:space="preserve" style="text-align:start;line-height:100%;-inkscape-font-specification:Oswald Bold Ultra-Condensed"><tspan font-style="normal" style="text-align:start;line-height:100%;-inkscape-font-specification:Oswald" id="tspan3038" x="66.806" y="820.346" font-family="Oswald" font-size="24" font-stretch="normal" font-variant="normal" font-weight="normal" text-anchor="start" writing-mode="lr-tb">Drag the app onto the Applications Link</tspan></text></g></svg>